<?xml version="1.0" standalone="no"?>
<!DOCTYPE svg PUBLIC "-//W3C//DTD SVG 20010904//EN"
 "http://www.w3.org/TR/2001/REC-SVG-20010904/DTD/svg10.dtd">
<svg version="1.0" xmlns="http://www.w3.org/2000/svg"
 width="460.000000pt" height="460.000000pt" viewBox="0 0 460.000000 460.000000"
 preserveAspectRatio="xMidYMid meet">
<metadata>
Created by potrace 1.14, written by Peter Selinger 2001-2017
</metadata>
<g transform="translate(0.000000,460.000000) scale(0.100000,-0.100000)"
fill="#000000" stroke="none">
<path d="M0 2300 l0 -2300 2300 0 2300 0 0 2300 0 2300 -2300 0 -2300 0 0
-2300z m2480 1830 c214 -26 372 -65 500 -123 36 -16 82 -35 102 -42 51 -19
251 -138 316 -189 132 -103 230 -199 370 -366 35 -41 192 -297 192 -312 0 -5
9 -28 19 -51 35 -77 68 -161 84 -212 20 -64 54 -245 67 -360 19 -171 10 -327
-31 -550 -27 -146 -50 -217 -120 -372 -10 -23 -19 -46 -19 -51 0 -15 -157
-271 -192 -312 -140 -167 -238 -263 -370 -366 -65 -51 -265 -170 -316 -189
-20 -7 -66 -26 -102 -42 -95 -43 -181 -69 -305 -92 -295 -55 -455 -55 -750 0
-144 27 -202 45 -370 119 -22 9 -48 20 -58 23 -34 12 -242 140 -295 181 -132
103 -230 199 -370 366 -35 41 -192 297 -192 312 0 5 -9 28 -19 51 -70 156 -93
227 -120 372 -42 231 -51 388 -31 555 15 117 48 295 67 355 16 51 49 135 84
212 10 23 19 46 19 51 0 15 157 271 192 312 140 167 238 263 370 366 65 51
265 170 316 189 20 7 64 25 97 40 230 104 597 157 865 125z"/>
<path d="M2155 4114 c-16 -2 -83 -11 -149 -20 -284 -37 -536 -146 -833 -362
-61 -44 -273 -258 -309 -311 -14 -20 -43 -61 -65 -91 -22 -30 -51 -76 -65
-102 -13 -25 -35 -63 -48 -83 -14 -20 -32 -57 -42 -83 -9 -26 -30 -76 -45
-112 -68 -160 -119 -439 -119 -650 0 -107 31 -372 54 -460 23 -89 115 -326
144 -372 12 -18 35 -58 51 -88 16 -30 48 -80 70 -110 22 -30 52 -72 66 -93 34
-50 262 -278 312 -312 21 -14 63 -44 93 -66 30 -22 77 -52 105 -66 27 -14 60
-34 75 -44 31 -23 237 -108 345 -142 261 -82 749 -82 1010 0 108 34 314 119
345 142 15 10 48 30 75 44 28 14 75 44 105 66 30 22 72 52 93 66 46 31 278
261 304 301 10 16 40 57 66 92 26 35 59 86 72 112 14 27 36 65 49 85 14 20 32
57 42 83 9 26 30 76 45 112 77 180 114 397 113 655 0 261 -29 425 -110 635
-63 162 -137 303 -214 407 -19 25 -45 61 -57 79 -34 49 -248 264 -307 306
-170 124 -291 195 -433 252 -160 64 -231 84 -373 107 -118 19 -399 33 -465 23z
m241 -674 c49 -17 116 -37 149 -45 34 -7 130 -36 215 -64 85 -28 176 -55 202
-60 25 -6 108 -31 184 -56 75 -24 153 -48 173 -51 20 -4 113 -31 206 -61 94
-29 181 -57 195 -61 l25 -7 0 -735 0 -734 -65 -16 c-36 -9 -130 -38 -210 -63
-247 -79 -410 -129 -530 -162 -63 -18 -179 -53 -258 -79 -78 -25 -148 -46
-155 -46 -7 0 -61 -16 -120 -35 l-107 -36 -107 36 c-59 19 -113 35 -120 35 -7
0 -77 21 -155 46 -79 26 -195 61 -258 79 -127 36 -309 91 -530 162 -80 26
-174 54 -210 63 l-65 16 0 734 0 735 25 7 c14 4 104 32 200 62 96 30 190 57
209 61 18 4 94 27 168 51 74 24 156 49 181 54 26 6 108 31 183 55 74 25 178
56 230 69 52 14 126 36 164 50 39 13 75 25 81 25 5 1 50 -13 100 -29z"/>
<path d="M2220 3429 c-30 -11 -84 -27 -118 -35 -35 -8 -125 -35 -200 -60 -76
-24 -164 -51 -197 -59 -33 -7 -123 -34 -200 -58 -77 -25 -155 -49 -174 -52
-19 -4 -102 -29 -185 -56 -142 -47 -181 -58 -248 -73 -16 -4 -28 -12 -28 -19
0 -7 24 -40 53 -73 28 -34 60 -74 69 -90 10 -16 38 -54 63 -84 25 -30 49 -59
53 -65 4 -5 43 -57 87 -115 43 -58 85 -109 92 -113 7 -4 22 -25 32 -45 11 -20
36 -55 57 -76 35 -37 38 -38 51 -20 8 10 35 46 61 78 26 32 58 75 71 95 13 20
41 55 62 78 22 24 39 47 39 53 0 6 17 29 38 53 21 23 58 69 83 102 134 178
183 241 194 250 6 6 24 29 39 53 15 23 35 51 44 60 28 28 229 293 220 291 -1
0 -28 -9 -58 -20z"/>
<path d="M2342 3417 c13 -17 44 -58 67 -89 24 -32 47 -58 51 -58 4 0 13 -13
19 -28 7 -15 29 -46 50 -68 21 -23 48 -59 61 -82 13 -23 27 -42 31 -42 6 0
124 -151 209 -269 19 -27 52 -67 73 -90 20 -22 37 -46 37 -51 0 -6 17 -29 39
-53 21 -23 49 -58 62 -78 13 -20 45 -63 71 -95 26 -32 54 -68 62 -79 14 -20
15 -19 46 15 18 19 43 53 57 75 14 22 31 45 37 50 7 6 48 57 91 115 44 58 83
110 87 115 4 6 28 35 53 65 25 30 53 68 63 84 9 16 41 56 70 90 28 33 52 66
52 73 0 7 -12 15 -27 19 -68 15 -107 26 -249 73 -83 27 -166 52 -185 56 -19 3
-96 26 -171 50 -75 25 -158 49 -185 56 -26 6 -122 35 -213 64 -91 29 -190 59
-220 65 -30 7 -79 21 -109 31 l-53 19 24 -33z"/>
<path d="M2260 3394 c-14 -20 -51 -67 -82 -106 -32 -39 -58 -74 -58 -78 0 -4
-20 -29 -45 -56 -24 -27 -50 -61 -56 -76 -6 -16 -14 -28 -18 -28 -3 0 -29 -30
-56 -66 -28 -36 -73 -94 -101 -128 -28 -34 -57 -72 -63 -85 -7 -12 -29 -41
-49 -63 -20 -23 -50 -60 -67 -84 -59 -85 -207 -274 -214 -274 -4 0 -13 -11
-19 -24 -13 -28 -13 -27 118 -196 52 -68 108 -142 124 -164 16 -23 45 -59 65
-82 20 -22 44 -54 53 -70 10 -16 37 -52 60 -81 24 -28 61 -75 83 -104 22 -29
47 -59 55 -68 9 -9 31 -40 50 -68 19 -29 38 -53 42 -53 3 0 17 -17 29 -37 13
-21 46 -66 74 -100 27 -34 62 -78 78 -99 l27 -37 0 1131 c0 623 -1 1132 -2
1132 -2 0 -14 -17 -28 -36z"/>
<path d="M2310 2300 l0 -1132 23 29 c13 15 40 52 61 81 21 28 41 52 45 52 4 0
17 17 29 38 11 20 39 57 61 81 22 24 45 57 52 72 6 16 15 29 19 29 7 0 138
166 220 280 19 26 51 68 70 92 19 23 44 55 55 70 11 15 61 79 110 143 122 158
126 164 114 188 -6 10 -18 26 -28 36 -22 22 -165 206 -208 268 -17 25 -45 60
-61 77 -16 17 -40 47 -53 67 -25 37 -51 72 -176 230 -40 51 -73 95 -73 98 0 4
-18 27 -41 51 -22 25 -50 62 -61 83 -12 20 -25 37 -29 37 -4 0 -24 24 -45 53
-21 28 -48 65 -61 80 l-23 29 0 -1132z"/>
<path d="M860 2301 l0 -691 38 41 c20 23 53 63 72 90 19 27 76 101 125 165 50
64 103 135 119 158 15 23 42 54 58 70 16 17 38 46 48 65 11 20 33 49 50 65 17
17 29 33 28 38 -3 8 -42 60 -111 146 -23 30 -52 68 -64 85 -12 18 -31 41 -41
52 -23 24 -165 208 -207 269 -16 23 -49 64 -72 91 l-43 48 0 -692z"/>
<path d="M3689 2937 c-25 -29 -53 -66 -62 -83 -9 -17 -23 -37 -32 -44 -10 -8
-51 -59 -93 -115 -41 -55 -79 -103 -84 -106 -4 -3 -21 -24 -36 -46 -15 -23
-46 -65 -69 -94 -71 -90 -108 -139 -111 -147 -1 -4 11 -21 26 -37 16 -17 40
-48 54 -70 14 -22 40 -56 58 -75 18 -19 43 -51 56 -70 12 -19 64 -87 114 -150
49 -63 101 -132 115 -152 13 -20 45 -60 70 -88 l45 -51 0 691 c0 379 -1 690
-2 690 -2 0 -24 -24 -49 -53z"/>
<path d="M1374 2246 c-18 -19 -42 -53 -55 -75 -12 -23 -26 -41 -30 -41 -6 0
-124 -151 -209 -269 -19 -27 -52 -67 -72 -90 -21 -22 -38 -45 -38 -50 0 -6
-22 -36 -50 -67 -27 -31 -50 -62 -50 -69 0 -6 26 -17 58 -24 31 -7 131 -37
222 -66 91 -29 181 -56 200 -60 19 -4 103 -29 185 -56 83 -26 170 -53 195 -58
25 -6 114 -33 199 -61 84 -27 160 -50 167 -50 7 0 48 -11 91 -25 42 -13 79
-22 81 -20 2 2 -25 41 -60 86 -34 45 -76 100 -92 123 -16 23 -46 60 -67 83
-22 24 -39 47 -39 53 0 6 -17 29 -38 53 -21 23 -67 80 -102 127 -35 47 -68 90
-72 95 -4 6 -28 35 -53 65 -25 30 -53 68 -63 84 -9 16 -36 51 -59 78 -24 27
-51 61 -60 76 -24 37 -144 186 -152 190 -3 1 -20 -13 -37 -32z"/>
<path d="M3120 2198 c-35 -46 -75 -99 -89 -118 -13 -19 -40 -53 -60 -76 -20
-22 -44 -54 -53 -70 -10 -16 -38 -54 -63 -84 -25 -30 -49 -59 -53 -65 -4 -5
-43 -57 -87 -115 -43 -58 -84 -109 -91 -115 -7 -5 -21 -24 -31 -42 -11 -18
-39 -55 -63 -83 -24 -28 -51 -62 -59 -75 -9 -13 -44 -60 -79 -105 -35 -46 -62
-84 -60 -85 5 -5 165 41 353 100 94 29 186 57 205 61 19 3 100 28 180 54 80
27 161 51 180 55 19 4 109 31 200 60 91 29 191 58 223 65 33 7 57 17 57 24 0
7 -22 39 -50 70 -27 31 -50 61 -50 67 0 5 -17 28 -37 50 -21 23 -54 63 -73 90
-19 27 -75 100 -125 164 -49 64 -104 136 -121 161 -34 49 -74 94 -83 94 -3 0
-35 -37 -71 -82z"/>
</g>
</svg>
